<svg xmlns="http://www.w3.org/2000/svg" viewBox="0 0 24 24"><title>Icon_24px_CloudTestLab_Color</title><g data-name="Product Icons"><path fill="#669df6" d="M19.5,18A1.5,1.5,0,1,1,18,19.5,1.5,1.5,0,0,1,19.5,18m0-1A2.5,2.5,0,1,0,22,19.5,2.5,2.5,0,0,0,19.5,17Z"/><path fill="#4285f4" d="M12,17a2.5,2.5,0,1,0,2.5,2.5A2.5,2.5,0,0,0,12,17Z"/><path fill="#669df6" d="M4.5,18A1.5,1.5,0,1,1,3,19.5,1.5,1.5,0,0,1,4.5,18m0-1A2.5,2.5,0,1,0,7,19.5,2.5,2.5,0,0,0,4.5,17Z"/><path fill="#669df6" d="M19.5,10.5A1.5,1.5,0,1,1,18,12a1.5,1.5,0,0,1,1.5-1.5m0-1A2.5,2.5,0,1,0,22,12a2.5,2.5,0,0,0-2.5-2.5Z"/><path fill="#4285f4" d="M12,9.5A2.5,2.5,0,1,0,14.5,12,2.5,2.5,0,0,0,12,9.5Z"/><path fill="#4285f4" d="M4.5,9.5A2.5,2.5,0,1,0,7,12,2.5,2.5,0,0,0,4.5,9.5Z"/><path fill="#4285f4" d="M19.5,2A2.5,2.5,0,1,0,22,4.5,2.5,2.5,0,0,0,19.5,2Z"/><path fill="#669df6" d="M12,3a1.5,1.5,0,1,1-1.5,1.5A1.5,1.5,0,0,1,12,3m0-1a2.5,2.5,0,1,0,2.5,2.5A2.5,2.5,0,0,0,12,2Z"/><path fill="#669df6" d="M4.5,3A1.5,1.5,0,1,1,3,4.5,1.5,1.5,0,0,1,4.5,3m0-1A2.5,2.5,0,1,0,7,4.5,2.5,2.5,0,0,0,4.5,2Z"/></g></svg>