<svg xmlns="http://www.w3.org/2000/svg" xmlns:xlink="http://www.w3.org/1999/xlink"
	 viewBox="0 0 60.3 42">

<g>
	<g>
		<path fill="#FFFFFF" d="M30.1,41.5c-0.3,0-0.7,0-1,0c-2.6-0.3-5-1.6-6.6-3.6c-0.4,0-0.7,0.1-1.1,0.1c-0.3,0-0.5,0-0.8,0
			c-2.1-0.2-4.1-1.2-5.5-2.9H6.9v-2.8h6.7c-0.4-1.1-0.5-2.3-0.4-3.5c0-0.1,0-0.1,0-0.2H3.8v-2.8h7.7c-0.9-1-1.6-2.3-1.8-3.6H0.5
			v-2.8h9c0.2-1.2,0.6-2.4,1.4-3.4H3.8v-2.8h10c-0.1-0.8-0.2-1.6-0.1-2.4c0-0.4,0.1-0.8,0.2-1.2h-7V6.8h8.3c0.5-0.7,1.1-1.3,1.7-1.9
			c1.6-1.3,3.5-2,5.5-2c0.3,0,0.6,0,0.9,0c0.6,0.1,1.1,0.2,1.6,0.3c2.2-1.9,5-2.9,7.9-2.9c0.4,0,0.8,0,1.2,0.1
			c4,0.4,7.6,2.7,9.5,6.3h9.6v2.8h-8.5c0.2,0.7,0.3,1.4,0.4,2.1c0.9,0.4,1.7,0.9,2.4,1.6h9V16h-6.8c0.6,1.1,1,2.2,1.1,3.4h9v2.8
			h-9.1c-0.2,1.3-0.6,2.5-1.3,3.6h7v2.8h-9.4c-0.1,0.1-0.2,0.2-0.3,0.2c0.1,0.7,0.1,1.3,0.1,2c0,0.5-0.1,1-0.3,1.4h6.4l0.1,0.3
			c0,0.1,0.1,0.3,0,2l0,0.5h-8c-1.5,1.9-3.8,3-6.2,3c-0.3,0-0.5,0-0.8,0c-0.2,0-0.4,0-0.6-0.1C35.8,40.2,33,41.5,30.1,41.5z"/>
		<path fill="#FFFFFF" d="M32.8,1c0.4,0,0.8,0,1.2,0.1c4.1,0.4,7.5,2.9,9.3,6.3h9.4v1.8H44c0.3,0.9,0.5,1.9,0.6,2.9
			c1,0.4,1.9,1,2.7,1.7H56v1.8h-7.2c0.9,1.3,1.4,2.8,1.5,4.4h9v1.8h-9c0,0,0,0,0,0.1c-0.2,1.7-0.8,3.2-1.7,4.6H56v1.8h-9
			c-0.2,0.2-0.4,0.4-0.7,0.5c0.1,0.7,0.2,1.4,0.1,2.1c-0.1,0.7-0.2,1.4-0.5,2h6.8c0.1,0.2,0,1.8,0,1.8h-7.8c-1.4,1.8-3.6,3-6,3
			c-0.3,0-0.5,0-0.8,0c-0.3,0-0.5-0.1-0.8-0.1C35.7,39.7,33,41,30.1,41c-0.3,0-0.6,0-0.9,0c-2.6-0.3-4.9-1.6-6.4-3.6
			c-0.4,0.1-0.9,0.1-1.3,0.1c-0.3,0-0.5,0-0.8,0c-2.1-0.2-3.9-1.2-5.3-2.8c0,0,0,0,0,0h-8v-1.8h6.9c-0.5-1.2-0.8-2.6-0.6-3.9
			c0-0.2,0.1-0.5,0.1-0.7H4.3v-1.8h8.4c-1.4-1.2-2.4-2.8-2.7-4.6H1v-1.8h9c0,0,0-0.1,0-0.1c0.2-1.6,0.9-3.1,1.9-4.3H4.3v-1.8h10.1
			c0,0,0,0,0.1,0c-0.2-0.9-0.3-1.9-0.2-2.9c0.1-0.6,0.2-1.2,0.4-1.8H7.4V7.3h8c0.5-0.7,1.1-1.4,1.7-2c1.5-1.2,3.3-1.8,5.1-1.8
			c0.3,0,0.6,0,0.8,0C23.8,3.6,24.4,3.8,25,4C27.2,2,29.9,1,32.8,1 M32.8,0C32.8,0,32.8,0,32.8,0c-2.9,0-5.8,1-8,2.8
			c-0.5-0.1-1-0.2-1.5-0.3c-0.3,0-0.6,0-0.9,0c-2.1,0-4.1,0.7-5.8,2.1c-0.6,0.5-1.2,1.1-1.7,1.8H7.4h-1v1v1.8v1h1h5.9
			c0,0.2-0.1,0.4-0.1,0.7c-0.1,0.7-0.1,1.3,0,2H4.3h-1v1v1.8v1h1H10c-0.4,0.8-0.7,1.6-0.9,2.4H1H0v1v1.8v1h1h8.2
			c0.2,0.9,0.7,1.8,1.2,2.6H4.3h-1v1v1.8v1h1h8.3c0,0.9,0,1.8,0.3,2.6H7.4h-1v1v1.8v1h1h7.5c1.5,1.6,3.5,2.6,5.6,2.9
			c0.3,0,0.6,0,0.9,0c0.3,0,0.6,0,0.9,0c1.7,2,4.1,3.3,6.8,3.6c0.3,0,0.7,0.1,1,0.1c3,0,5.8-1.3,7.7-3.6c0.1,0,0.2,0,0.3,0
			c0.3,0,0.6,0,0.9,0c2.5,0,4.8-1.1,6.4-3h7.3h0.9l0.1-0.9c0.1-1.7,0-2-0.1-2.2l-0.2-0.7h-0.7h-5.4c0.1-0.3,0.1-0.6,0.1-0.9
			c0.1-0.6,0.1-1.2,0-1.8H56h1v-1v-1.8v-1h-1h-5.7c0.4-0.8,0.7-1.7,0.9-2.6h8.1h1v-1v-1.8v-1h-1h-8.1c-0.1-0.8-0.4-1.6-0.7-2.4H56h1
			v-1v-1.8v-1h-1h-8.4c-0.6-0.6-1.3-1-2.1-1.4c0-0.4-0.1-0.8-0.2-1.2h7.3h1v-1V7.3v-1h-1h-8.8c-2.1-3.5-5.7-5.9-9.8-6.3
			C33.7,0,33.2,0,32.8,0L32.8,0L32.8,0z"/>
	</g>
	<g>
		<path fill="#312D2A" d="M7.4,7.3v1.8h5.8c0.2-0.6,0.4-1.2,0.7-1.8H7.4z"/>
		<path fill="#312D2A" d="M52.7,9.1V7.3h-7.9c0.3,0.6,0.5,1.2,0.7,1.8H52.7z"/>
		<path fill="#312D2A" d="M11.9,13.8H4.3v1.8h5.9C10.7,14.9,11.2,14.3,11.9,13.8z"/>
		<path fill="#312D2A" d="M56,15.5v-1.8h-6.9c0.5,0.5,0.9,1.1,1.2,1.8H56z"/>
		<path fill="#312D2A" d="M51.7,21.7h7.7v-1.8h-7.7C51.7,20.5,51.7,21.1,51.7,21.7z"/>
		<path fill="#312D2A" d="M8.7,19.9H1v1.8h7.7C8.6,21.1,8.6,20.5,8.7,19.9z"/>
		<path fill="#312D2A" d="M10.8,26.4H4.3v1.8h8.1c0-0.1,0-0.2,0.1-0.3C11.9,27.4,11.3,26.9,10.8,26.4z"/>
		<path fill="#312D2A" d="M56,28.1v-1.8h-5.8c-0.4,0.6-0.8,1.2-1.3,1.8H56z"/>
		<path fill="#312D2A" d="M52.7,34.5v-1.8h-5.4c-0.2,0.6-0.5,1.2-0.8,1.8H52.7z"/>
		<path fill="#312D2A" d="M7.4,32.8v1.8h6.3c-0.4-0.6-0.7-1.2-0.9-1.8H7.4z"/>
		<path fill="#312D2A" d="M50.3,21.8c0.4-4.2-1.9-8.1-5.7-9.8C44.2,6.3,39.8,1.6,34,1.1c-3.3-0.3-6.5,0.7-9,2.9
			c-0.6-0.2-1.2-0.3-1.8-0.4c-2.2-0.2-4.3,0.4-6,1.8c-1.7,1.4-2.7,3.3-3,5.5c-0.1,1,0,1.9,0.2,2.9c-2.5,1.1-4.2,3.4-4.5,6.1
			c-0.3,3.1,1.3,6,4,7.4c-0.2,0.5-0.3,1.1-0.3,1.6c-0.2,2.1,0.4,4.1,1.7,5.7c1.3,1.6,3.2,2.6,5.3,2.8c0.7,0.1,1.4,0,2.1-0.1
			c1.5,2.1,3.9,3.4,6.4,3.6c0.3,0,0.6,0,0.9,0c2.9,0,5.6-1.3,7.3-3.7c0.3,0.1,0.5,0.1,0.8,0.1c0.3,0,0.5,0,0.8,0
			c3.8,0,7-2.9,7.4-6.7c0.1-0.7,0-1.4-0.1-2.1C48.6,27,50.1,24.6,50.3,21.8z M44.4,28.5c0.2,0.7,0.3,1.4,0.2,2.1
			c-0.2,1.5-0.9,2.9-2.1,3.8c-1.2,1-2.7,1.4-4.2,1.3c-0.4,0-0.7-0.1-1.1-0.2l-0.6-0.2l-0.4,0.6c-1.5,2.3-4.2,3.6-7,3.3
			c-2.2-0.2-4.2-1.4-5.5-3.3l-0.3-0.5l-0.6,0.2c-0.7,0.2-1.4,0.2-2.1,0.2c-1.6-0.2-3.1-0.9-4.1-2.2c-1-1.3-1.5-2.8-1.3-4.4
			c0.1-0.6,0.2-1.3,0.5-1.9l0.4-0.9l-0.9-0.3c-1.9-0.7-3.2-2.3-3.6-4.2h12.4l-2.4,2.4l1.3,1.2l4.5-4.6l-4.5-4.6l-1.3,1.2l2.4,2.4
			H11.8c0.3-2.3,1.8-4.2,4-4.8l0.9-0.3L16.4,14C16,13,15.9,12,16,11c0.2-1.7,1-3.2,2.3-4.3c1.3-1.1,3-1.6,4.7-1.4
			c0.6,0.1,1.3,0.2,1.8,0.5L25.4,6l0.4-0.4c2.1-2.1,5.1-3.1,8-2.8c5.1,0.5,9,4.7,9.1,9.8l0,0.6l0.6,0.2c2.8,1,4.8,3.6,5.1,6.5H36.2
			l2.2-2.2l-1.3-1.2l-4.3,4.3l4.5,4.6l1.3-1.2l-2.4-2.4h12.3c-0.3,2.4-1.6,4.5-3.7,5.8l-0.6,0.3L44.4,28.5z"/>
	</g>
</g>
</svg>
