<svg xmlns="http://www.w3.org/2000/svg" viewBox="0 0 27 42">
<path d="M20 41c-1.4 0-2.7-.5-3.7-1.3H0V33H1.8l.6-13.5c-1-.2-1.8-1.1-1.8-2.2V8.8H6.9v3H8v-3H9.9V0H16c1 0 1.9.7 2.1 1.7h6.4l-2 3.4 2 3.3H17.8c-1 0-1.8-.7-2.1-1.6h-.1V6.7H12.4v2h1.9v3h1.1v-3h6.3v8.5c0 1.1-.8 2-1.8 2.2l.4 9.7c3.1.2 5.6 2.8 5.6 5.9.1 3.3-2.6 6-5.9 6" fill="#FFFFFF"/>
<path d="M16.56 1c.9 0 1.71.8 1.71 1.7h5.92L22.48 5.6l1.71 2.8H18.37c-.91 0-1.61-.7-1.71-1.6 0-.1-.1-.1-.1-.1H12.45v3h1.9v3h2.11v-3h5.32v8c0 .9-.8 1.7-1.71 1.7h-.2l.41 10.7c.1 0 .1 0 .2 0 3.01 0 5.42 2.4 5.42 5.4 0 3-2.31 5.5-5.32 5.5-1.41 0-2.61-.5-3.62-1.3H1V34H2.81l.7-14.5h-.2c-.9 0-1.7-.8-1.7-1.7v-8H6.93v3h2.1v-3h1.91V1h1 .61 4.01m0-1H12.55h-.61-1-1V1 8.8H9.03h-1v1 2h-.1v-2-1h-1H1.61.6v1 8c0 1.2.8 2.2 1.81 2.6L1.81 33H1 0v1 5.7 1H1 16.66c1.11.9 2.51 1.3 3.92 1.3C24.09 42 27 39.1 27 35.6c0-3.3-2.51-6-5.72-6.4l-.4-8.9c1.1-.4 1.8-1.4 1.8-2.6v-8V9.4h1.41H25.9l-.81-1.5-1.4-2.3 1.4-2.4L26 1.7H24.29 19.07c-.4-1-1.4-1.7-2.51-1.7M13.45 7.7h2.21v.1h.2c.2.4.4.7.7.9h-.1-1v1 2h-.1v-2-1H14.35h-.9v-1" fill="#FFFFFF"/>
<path d="M2.49 37.42V34.76h.2H13.94c0-.5.1-.99.2-1.49H4.28l.7-14.21H18.32l.4 9.68c.5-.1 1-.2 1.5-.2l-.4-9.38h.1c.89 0 1.69-.79 1.69-1.68V9.59H16.33v2.96H14.24V9.59H12.35V6.63h4.08c.1 0 .1.1.1.1 0 .88.8 1.57 1.69 1.57H24L22.31 5.54 24 2.68H18.13c0-.89-.8-1.68-1.7-1.68H12.45h-.6-.99V9.69H8.96v2.96H6.87V9.69H1.6v7.89c0 .89.79 1.68 1.69 1.68h.2l-.7 14.11H1V39H15.34c-.4-.49-.7-.99-.9-1.48H2.49v-.1M21.31 3.96l-.79 1.38.79 1.29H18.22c-.09 0-.09-.1-.09-.1V3.96h3.18M16.43 2.28c.1 0 .2.1.2.2V4.95h-.1H12.45V2.28h3.98M3.29 17.58c-.1 0-.2-.1-.2-.19V10.97H5.38v2.96h5.08V10.97h2.29v2.96h5.18V10.97h2.29v6.42c0 .09-.1.19-.2.19h-.2H3.49h-.2" fill="#2c5967"/>
<path d="M20.45 30C17.42 30 15 32.22 15 35c0 2.78 2.42 5 5.45 5 3.03 0 5.45-2.22 5.45-5 .1-2.68-2.42-5-5.45-5m0 8.7c-2.22 0-3.94-1.66-3.94-3.61 0-1.94 1.82-3.61 3.94-3.61 2.12 0 3.94 1.67 3.94 3.61 0 1.95-1.72 3.61-3.94 3.61" fill="#2c5967"/>
<path d="M21.9 33l-2.1 1.95-.7-.55L18 35.42 19.8 37 23 34.02 21.9 33" fill="#2c5967"/>
<path d="M13.1 21.98l1 .9H10v1.33h4.1l-1 .9 1.1.89L17 23.5 14.2 21l-1.1.98" fill="#2c5967"/>
<path d="M9.39 25.98L8.43 25 6 27.5 8.43 30l.96-.98-.78-.72H12V26.96H8.43l.96-.98" fill="#2c5967"/>
<path d="M2.49 37.42V34.76h.2H13.94c0-.5.1-.99.2-1.49H4.28l.7-14.21H18.32l.4 9.68c.5-.1 1-.2 1.5-.2l-.4-9.38h.1c.89 0 1.69-.79 1.69-1.68V9.59H16.33v2.96H14.24V9.59H12.35V6.63h4.08c.1 0 .1.1.1.1 0 .88.8 1.57 1.69 1.57H24L22.31 5.54 24 2.68H18.13c0-.89-.8-1.68-1.7-1.68H12.45h-.6-.99V9.69H8.96v2.96H6.87V9.69H1.6v7.89c0 .89.79 1.68 1.69 1.68h.2l-.7 14.11H1V39H15.34c-.4-.49-.7-.99-.9-1.48H2.49v-.1M21.31 3.96l-.79 1.38.79 1.29H18.22c-.09 0-.09-.1-.09-.1V3.96h3.18M16.43 2.28c.1 0 .2.1.2.2V4.95h-.1H12.45V2.28h3.98M3.29 17.58c-.1 0-.2-.1-.2-.19V10.97H5.38v2.96h5.08V10.97h2.29v2.96h5.18V10.97h2.29v6.42c0 .09-.1.19-.2.19h-.2H3.49h-.2" fill="#2c5967"/>
<path d="M20.45 30C17.42 30 15 32.22 15 35c0 2.78 2.42 5 5.45 5 3.03 0 5.45-2.22 5.45-5 .1-2.68-2.42-5-5.45-5m0 8.7c-2.22 0-3.94-1.66-3.94-3.61 0-1.94 1.82-3.61 3.94-3.61 2.12 0 3.94 1.67 3.94 3.61 0 1.95-1.72 3.61-3.94 3.61" fill="#2c5967"/>
<path d="M21.9 33l-2.1 1.95-.7-.55L18 35.42 19.8 37 23 34.02 21.9 33" fill="#2c5967"/>
<path d="M13.1 21.98l1 .9H10v1.33h4.1l-1 .9 1.1.89L17 23.5 14.2 21l-1.1.98" fill="#2c5967"/>
<path d="M9.39 25.98L8.43 25 6 27.5 8.43 30l.96-.98-.78-.72H12V26.96H8.43l.96-.98" fill="#2c5967"/>
</svg>
