<svg xmlns="http://www.w3.org/2000/svg" viewBox="0 0 63 63">
<path d="M3.26 61.85C1.48 61.85 0 60.34 0 58.53V3.32C0 1.51 1.48 0 3.26 0H57.74C59.52 0 61 1.51 61 3.32V58.68C61 60.49 59.52 62 57.74 62L3.26 61.85" fill="#FFFFFF"/>
<path d="M58.81 1.5c1.35 0 2.55 1.2 2.55 2.55V59.1c0 1.35-1.2 2.55-2.55 2.55H4.04C2.69 61.5 1.5 60.3 1.5 58.95V4.05C1.5 2.7 2.69 1.5 4.04 1.5H58.81m0-1.5H4.04C1.8 0 0 1.8 0 4.05V59.1C0 61.2 1.8 63 4.04 63H58.96C61.2 63 63 61.2 63 58.95V4.05C62.85 1.8 61.05 0 58.81 0" fill="#FFFFFF"/>
<path d="M44.44 16.03l3.94 6.82-3.94 6.83H36.56l-3.93-6.83 3.93-6.82h7.88M45.75 14H35.25L30 23l5.25 9h10.5L51 23l-5.25-9" fill="#2d5967"/>
<path d="M30 38.03c3.77 0 6.82 3.05 6.82 6.82 0 3.78-3.05 6.83-6.82 6.83-3.77 0-6.82-3.05-6.82-6.83 0-3.77 3.05-6.82 6.82-6.82M30 36c-4.94 0-9 4.06-9 9 0 4.94 4.06 9 9 9 4.94 0 9-4.06 9-9 0-5.08-4.06-9-9-9" fill="#2d5967"/>
<path d="M19.93 18.35l6.42 11.47H13.65l6.28-11.47m0-4.35L10 32H30L19.93 14" fill="#2d5967"/>
<path d="M58.45 61H3.55C2.2 61 1 59.8 1 58.45V7H61V58.45C61 59.8 59.8 61 58.45 61M3.25 9.25V58.6c0 .15.15.3.3.3H58.6c.15 0 .3-.15.3-.3V9.25H3.25" fill="#2d5967"/>
<path d="M61 5H1V3.35C1 2.1 2.2 1 3.55 1H58.6C59.8 1 61 2.1 61 3.35V5" fill="#2d5967"/>
</svg>
