<svg xmlns="http://www.w3.org/2000/svg" viewBox="0 0 42 39">
<path d="M20.44 39H18.71c-1.92-.07-3.83-.29-5.71-.66-.57-.12-1.13-.28-1.68-.47-.5-.15-.97-.36-1.41-.62-.4-.18-.74-.47-.99-.83-.26-.36-.4-.78-.43-1.22V21.16H0l.1-1.44c.13-1.69.67-3.32 1.6-4.73.93-1.41 2.2-2.57 3.69-3.35.33-.17.61-.41.83-.7.22-.29.37-.63.45-.99.23-1.2.75-2.33 1.51-3.28.76-.96 1.75-1.72 2.86-2.2.96-.43 2-.64 3.05-.65.23-.01.47-.01.7 0h.24c.32 0 .64-.06.93-.19.29-.12.55-.31.78-.54 1.02-1.1 2.28-1.94 3.7-2.44 1.41-.5 2.92-.65 4.4-.44 1.49.22 2.89.78 4.11 1.67 1.21.87 2.2 2.04 2.87 3.38.16.34.4.63.7.86.29.23.63.39 1 .46 1.43.32 2.77.97 3.91 1.9 1.14.92 2.05 2.1 2.66 3.44.61 1.34.91 2.81.86 4.28-.04 1.47-.43 2.91-1.12 4.21l-.38.7H32.4V35.13c-.01.33-.09.66-.24.95-.15.3-.37.56-.64.75-.18.14-.37.27-.56.39-2.01 1.18-5.79 1.57-7.87 1.69-.87.06-1.79.09-2.65.09" fill="#FFFFFF"/>
<path d="M24.04.94c1.64-.01 3.25.44 4.64 1.29 1.4.85 2.52 2.06 3.24 3.51.2.39.49.73.84 1 .34.26.75.45 1.18.54 1 .23 1.96.62 2.83 1.15 1.94 1.2 3.34 3.08 3.93 5.26.58 2.17.31 4.49-.76 6.47l-.25.45H32.46V34.82c-.01.25-.08.49-.2.71-.11.22-.28.41-.49.55-.16.13-.32.24-.5.35-1.68.92-4.83 1.43-7.65 1.6-.94.06-1.84.08-2.64.08H19.26c-1.9-.06-3.79-.28-5.66-.64-.55-.12-1.09-.26-1.63-.44-.45-.15-.89-.34-1.31-.58-.33-.13-.62-.36-.82-.64-.21-.28-.34-.61-.37-.96V20.61H.98l.07-.93c.11-1.57.64-3.09 1.52-4.41.88-1.32 2.09-2.4 3.51-3.13.39-.19.74-.47 1.01-.81.26-.34.45-.74.55-1.16.31-1.59 1.18-3.02 2.45-4.05 1.27-1.02 2.86-1.58 4.51-1.59.21 0 .44 0 .65 0h.29c.38.01.76-.05 1.1-.19.36-.14.68-.35.94-.62.83-.87 1.83-1.57 2.94-2.05 1.11-.48 2.31-.73 3.52-.73m0-.93c-1.34 0-2.67.27-3.9.8-1.23.53-2.33 1.3-3.24 2.27-.18.18-.39.32-.63.42-.23.1-.48.15-.73.15h-.19c-.25-.02-.5-.02-.75 0-1.12 0-2.22.23-3.24.67-1.19.51-2.23 1.3-3.04 2.29-.81 1-1.36 2.18-1.61 3.43-.07.28-.2.54-.38.76-.18.23-.41.4-.67.53-1.56.81-2.88 1.99-3.85 3.44C.84 16.23.27 17.9.14 19.62l-.06.93L0 21.54H8.55V34.82c.03.51.19 1.01.49 1.43.29.43.7.76 1.17.98.47.26.97.49 1.48.65.52.17 1.1.33 1.75.47 1.9.37 3.84.59 5.78.65.6 0 1.19 0 1.76 0 .86 0 1.8 0 2.7-.08 2.59-.15 6.09-.58 8.06-1.73.23-.12.44-.27.63-.43.32-.23.57-.53.75-.87.18-.35.27-.72.28-1.11V21.54h6.86l.26-.49.25-.45c.73-1.33 1.13-2.82 1.18-4.33.05-1.52-.26-3.02-.89-4.4-.65-1.38-1.6-2.59-2.79-3.54-1.2-.96-2.6-1.63-4.1-1.96-.3-.06-.57-.19-.81-.37-.24-.18-.44-.41-.57-.68-.81-1.6-2.05-2.95-3.6-3.89C27.64.49 25.86 0 24.04.01" fill="#FFFFFF"/>
<path d="M36.52 7.62c-.87-.55-1.82-.94-2.81-1.17-.43-.1-.83-.29-1.18-.56-.35-.27-.63-.61-.83-1.01-.72-1.47-1.84-2.7-3.22-3.56C27.1.45 25.5 0 23.87.01c-1.2 0-2.39.25-3.5.74-1.1.49-2.09 1.2-2.91 2.09-.3.31-.66.55-1.06.69-.4.15-.83.21-1.26.16-1.73-.16-3.46.33-4.86 1.38C8.89 6.11 7.92 7.64 7.58 9.35c-.09.43-.27.84-.53 1.18-.26.35-.6.64-.98.84-1.42.75-2.62 1.84-3.49 3.19-.88 1.34-1.4 2.89-1.52 4.5L1 20H8.49V18.26H2.87c.22-1.13.69-2.2 1.38-3.13.69-.92 1.57-1.68 2.59-2.21.62-.32 1.15-.78 1.56-1.33.41-.56.69-1.2.82-1.88.26-1.31.98-2.48 2.05-3.28 1.06-.79 2.39-1.16 3.7-1.03.69.08 1.39-.01 2.04-.26.65-.24 1.24-.63 1.71-1.14.78-.84 1.74-1.48 2.82-1.86 1.07-.38 2.22-.49 3.34-.33 1.13.17 2.2.6 3.12 1.27.92.67 1.67 1.56 2.18 2.59.31.62.75 1.17 1.3 1.59.55.43 1.18.73 1.86.89.82.17 1.59.49 2.3.94 1.48.94 2.57 2.38 3.08 4.07.5 1.68.38 3.5-.33 5.1H33.17v1.72h6.25l.24-.45c1.07-2.02 1.34-4.37.76-6.58-.59-2.21-1.98-4.12-3.9-5.33" fill="#2d5967"/>
<path d="M32 16.54c0-.03 0-.06 0-.09 0-.03 0-.07 0-.11-.02-.25-.08-.49-.2-.71-.12-.23-.29-.42-.49-.57-.16-.13-.33-.24-.5-.35-1.68-.98-4.83-1.45-7.66-1.63-.94-.05-1.84-.08-2.64-.08-.53 0-1.11 0-1.71 0-1.9.06-3.79.28-5.66.65-.55.11-1.09.26-1.63.44-.45.16-.9.35-1.32.58-.33.15-.61.38-.82.66-.2.29-.33.63-.37.98 0 .03 0 .07 0 .11 0 .02 0 .05 0 .08V34.78c.04.34.17.67.37.95.21.28.5.5.82.63.42.24.86.43 1.32.58.54.17 1.08.31 1.63.43 1.87.36 3.76.57 5.66.63h1.71c.8 0 1.71 0 2.64-.07 2.83-.18 5.98-.63 7.66-1.59.17-.1.34-.21.5-.34.2-.14.37-.33.49-.55.12-.21.18-.45.2-.7V16.54M20.51 14.53c6.01 0 9.61 1.17 9.92 1.83-.31.65-3.91 1.84-9.92 1.84-6 0-9.6-1.18-9.91-1.84.31-.66 3.91-1.83 9.91-1.83M10.59 18.2c2.35 1.13 6.86 1.45 9.92 1.45 3.07 0 7.55-.36 9.93-1.52v4.44c-.22.4-3.04 1.76-9.93 1.76-6.89 0-9.66-1.32-9.92-1.73V18.2m19.85 6.23v4.26c-.22.41-3.04 1.77-9.93 1.77-6.89 0-9.66-1.38-9.92-1.8V24.4c2.35 1.13 6.89 1.48 9.92 1.48 3.04 0 7.57-.35 9.93-1.48v.03M20.51 36.51c-6.89 0-9.7-1.35-9.92-1.76V30.47c2.35 1.11 6.86 1.48 9.92 1.48 3.07 0 7.55-.35 9.93-1.48v4.28c-.22.41-3.04 1.76-9.93 1.76" fill="#2d5967"/>
</svg>
